# xmcd CD database file generated by Grip 2.96
# 
# Track frame offsets:
#       150
#       24203
#       39639
#       72562
#       105777
#       135264
#       163922
#       184771
# 
# Disc length: 2801 seconds
# 
# Revision: 0
# Processed by: cddbd v1.4PL0 Copyright (c) Steve Scherf et al.
# Submitted via: Grip 2.96
# 
DISCID=5f0aef08
DTITLE=Big Joe Turner - Live In Concert
DYEAR=1900
DGENRE=
TTITLE0=Shake Rattle And Roll
TTITLE1=Jump For Joy
TTITLE2=The Night Time Is The Right Time
TTITLE3=Chains Of Love
TTITLE4=Morning Noon And Night
TTITLE5=Early One Morning
TTITLE6=Hide And Go Seek
TTITLE7=Corina Corina
EXTD=
EXTT0=
EXTT1=
EXTT2=
EXTT3=
EXTT4=
EXTT5=
EXTT6=
EXTT7=
PLAYORDER=
